<svg width="128" height="128" viewBox="0 0 128 128" fill="none" xmlns="http://www.w3.org/2000/svg">
  <rect width="128" height="128" rx="20" fill="#3498db"/>
  <circle cx="64" cy="54" r="26" fill="white"/>
  <circle cx="64" cy="54" r="10" fill="#3498db"/>
  <path d="M96 64L102 70L96 76" stroke="white" stroke-width="4" stroke-linecap="round" stroke-linejoin="round"/>
  <path d="M32 64L26 70L32 76" stroke="white" stroke-width="4" stroke-linecap="round" stroke-linejoin="round"/>
  <path d="M64 16V24" stroke="white" stroke-width="4" stroke-linecap="round"/>
  <path d="M64 104V112" stroke="white" stroke-width="4" stroke-linecap="round"/>
  <path d="M92 24L88 28" stroke="white" stroke-width="4" stroke-linecap="round"/>
  <path d="M40 100L36 104" stroke="white" stroke-width="4" stroke-linecap="round"/>
  <path d="M104 36L100 40" stroke="white" stroke-width="4" stroke-linecap="round"/>
  <path d="M28 88L24 92" stroke="white" stroke-width="4" stroke-linecap="round"/>
  <path d="M104 92L100 88" stroke="white" stroke-width="4" stroke-linecap="round"/>
  <path d="M28 40L24 36" stroke="white" stroke-width="4" stroke-linecap="round"/>
  <path d="M92 104L88 100" stroke="white" stroke-width="4" stroke-linecap="round"/>
  <path d="M40 28L36 24" stroke="white" stroke-width="4" stroke-linecap="round"/>
  <text x="64" y="100" text-anchor="middle" fill="white" font-family="Arial, sans-serif" font-size="24" font-weight="bold">$</text>
  <path d="M45 90L55 95L75 95L85 90" stroke="white" stroke-width="3" stroke-linecap="round" stroke-linejoin="round" fill="none"/>
</svg>